<svg width="2780" height="2780" viewBox="0 0 2780 2780" fill="none" xmlns="http://www.w3.org/2000/svg">
<path fill-rule="evenodd" clip-rule="evenodd" d="M1102.34 430.93C1027.28 449.229 984.18 473.436 902.244 538.134L874.421 560.104L870.006 524.928C868.452 512.551 865.089 506.765 862.786 504.178C860.745 501.886 858.376 500.769 855.11 500.392C847.178 499.476 837.005 503.462 832.295 506.36C832.128 506.539 831.295 507.342 829.657 509.272C827.393 511.937 824.536 515.601 820.986 520.297C818.753 523.252 816.253 526.607 813.538 530.252C807.926 537.785 801.392 546.556 794.382 555.585C773.784 582.117 746.512 614.33 715.716 636.813C699.524 652.447 689.889 664.416 684.372 675.509C679.06 686.19 677.042 697.125 678.279 711.754C678.766 717.518 681.226 726.209 685.887 737.389C690.414 748.247 696.465 760.168 703.068 772.01C716.266 795.681 731.006 817.863 738.375 828.671C739.166 829.831 739.942 830.973 740.705 832.096C747.574 842.199 753.384 850.746 759.788 857.676C766.677 865.13 772.502 868.697 778.19 869.809C784.868 871.116 790.002 869.579 793.294 866.662C796.424 863.889 801.01 857.073 800.871 841.421C795.95 804.277 795.15 775.686 799.074 748.924C803.046 721.83 811.692 697.796 824.061 669.844L862.204 680.352C858.711 709.071 857.713 729.015 859.155 746.272C860.528 762.706 864.181 777.463 870.918 795.65C889.742 826.685 900.477 854.647 902.815 886.624C905.149 918.55 898.962 952.779 887.133 995.746L886.795 996.973L776.064 1262.02C702.74 1477.31 663.49 1637.52 657.74 1785.01C652.002 1932.17 679.579 2068 742.073 2234.41C745.957 2244.75 740.722 2256.28 730.382 2260.16C720.041 2264.04 708.51 2258.81 704.627 2248.47C640.85 2078.65 611.769 1937.39 617.77 1783.45C623.754 1629.98 664.568 1465.22 738.419 1248.49L738.636 1247.85L848.902 983.908C860.166 942.765 864.726 914.224 862.921 889.54C861.242 866.564 853.922 845.445 838.549 819.452C839.126 825.089 839.832 831.016 840.672 837.278L840.821 838.385L840.845 839.501C841.375 863.787 834.345 883.73 819.822 896.599C805.392 909.387 786.832 912.259 770.51 909.065C753.198 905.678 740.273 895.494 730.412 884.824C721.831 875.539 714.255 864.366 707.695 854.693C706.89 853.505 706.1 852.34 705.325 851.204C697.694 840.011 682.184 816.693 668.131 791.489C661.109 778.894 654.284 765.534 648.968 752.782C643.786 740.353 639.433 727.107 638.421 715.121C636.657 694.25 639.543 675.822 648.557 657.697C657.256 640.206 671.095 624.182 689.006 607.003L690.023 606.028L691.166 605.205C717.509 586.243 742.302 557.44 762.786 531.056C769.577 522.308 775.607 514.211 781.08 506.864C783.883 503.101 786.539 499.535 789.076 496.178C792.697 491.388 796.124 486.964 799.165 483.382C801.75 480.337 805.574 476.03 809.905 473.198C818.45 467.611 838.554 458.214 859.698 460.656C871.116 461.974 883.089 466.83 892.66 477.579C895.656 480.943 898.258 484.708 900.485 488.853C971.462 434.772 1018.14 410.256 1093.12 392.005L1093.36 391.946L1093.6 391.893C1138.92 382.05 1187.12 384.173 1225.44 389.444C1263.22 394.64 1294.12 403.302 1304.84 408.328C1315.17 413.17 1329.12 423.461 1339.1 431.187C1340.46 432.243 1341.79 433.282 1343.07 434.291C1352.6 425.678 1363.11 420.175 1373.96 417.269C1390.1 412.945 1405.46 414.766 1417.41 418.226C1422.8 419.785 1428.62 423.207 1433.12 426.005C1438.26 429.207 1444.36 433.345 1451.02 437.961C1455.46 441.048 1460.19 444.368 1465.17 447.874C1475.44 455.089 1486.82 463.088 1499.2 471.447C1536.22 496.443 1578.29 521.892 1613.92 532.229L1615 532.541L1616.03 532.972C1623.99 536.281 1631.62 541.224 1637.07 548.998C1642.63 556.922 1644.51 565.764 1644.49 574.242C1644.46 589.425 1638.14 607.661 1630.7 627.146C1617.25 667.825 1597.61 713.591 1578.12 749.619C1568.37 767.632 1558.32 783.857 1548.73 795.921C1543.97 801.921 1538.86 807.489 1533.49 811.776C1528.57 815.714 1521.02 820.531 1511.68 820.92C1491.41 821.765 1476.33 809.6 1466.09 797.107C1462.25 811.696 1457.17 826.725 1449.62 845.375C1438.26 879.389 1439.35 884.91 1440.65 888.289C1444.64 898.592 1439.51 910.172 1429.21 914.155C1418.91 918.137 1407.33 913.014 1403.35 902.711C1395.94 883.541 1401.37 863.482 1411.89 832.086L1412.08 831.492L1412.32 830.91C1427.49 793.572 1431.53 773.424 1437.06 735.547L1447.86 661.623L1475.44 731.053C1481.5 746.321 1488.21 760.171 1495.49 769.794C1501.43 777.655 1505.7 780.088 1508.25 780.743C1508.33 780.677 1508.42 780.605 1508.52 780.529C1510.63 778.841 1513.63 775.808 1517.41 771.045C1524.93 761.583 1533.71 747.641 1542.94 730.583C1561.32 696.602 1580.11 652.821 1592.86 614.174L1593 613.731L1593.17 613.294C1601.25 592.162 1604.48 580.796 1604.49 574.156C1604.49 572.877 1604.36 572.21 1604.28 571.929C1604.04 571.698 1603.29 571.089 1601.53 570.278C1559.58 557.811 1513.45 529.331 1476.82 504.599C1464.14 496.04 1452.14 487.609 1441.72 480.284C1436.84 476.854 1432.31 473.666 1428.21 470.822C1421.63 466.258 1416.23 462.607 1411.99 459.971C1408.76 457.962 1407.03 457.077 1406.41 456.761C1406.1 456.598 1406.07 456.586 1406.29 456.648C1399.24 454.609 1391.56 453.964 1384.31 455.907C1377.47 457.739 1369.47 462.257 1361.78 473.336L1349.22 491.45L1332.41 477.189L1332.41 477.188L1332.4 477.178L1332.34 477.129C1332.29 477.083 1332.2 477.012 1332.09 476.917C1331.86 476.726 1331.52 476.438 1331.08 476.065C1330.18 475.32 1328.88 474.237 1327.26 472.91C1324.02 470.249 1319.54 466.637 1314.6 462.813C1304.08 454.664 1293.53 447.205 1287.86 444.547C1282.58 442.073 1256.39 434.078 1219.99 429.071C1184.21 424.149 1141.26 422.519 1102.34 430.93ZM1604.38 572.03C1604.37 572.029 1604.37 572.019 1604.35 571.998C1604.37 572.019 1604.38 572.03 1604.38 572.03ZM1604.26 571.862C1604.23 571.801 1604.21 571.764 1604.21 571.76C1604.22 571.757 1604.23 571.787 1604.26 571.862ZM1506.98 781.598C1506.98 781.596 1507.02 781.574 1507.1 781.541C1507.02 781.584 1506.98 781.601 1506.98 781.598Z" fill="white"/>
<path fill-rule="evenodd" clip-rule="evenodd" d="M1232.91 752.185L1250.19 758.067C1287.41 770.74 1316.37 784.724 1343.22 805.778C1366.87 824.328 1388.12 847.769 1411.81 879.014C1446.96 866.428 1477.58 859.697 1509.64 859.696C1542.97 859.696 1576.49 866.971 1616.85 880.516C1658.19 847.836 1693.61 824.474 1731.88 809.221C1773.06 792.808 1816.18 786.31 1871.63 786L1891.33 785.89L1891.74 805.586C1894.49 938.741 1891.44 1017.76 1823.06 1097.15C1823.44 1100.66 1823.81 1104.13 1824.19 1107.58C1828.43 1146.39 1832.23 1181.25 1827.84 1216.65C1822.68 1258.21 1806.55 1299.61 1770.54 1351.71C1762.12 1381.38 1759.63 1404.89 1765.41 1432.37C1771.53 1461.45 1787.23 1496.48 1818.55 1548.32C1905.33 1651.57 1958.42 1733.61 1985.14 1816.19C2009.29 1890.81 2011.41 1964.28 1999.67 2051.79C2028.68 2041.82 2047.95 2030.06 2061.57 2009.31C2080.19 1980.95 2090.74 1932.03 2089.26 1837.67C2080.23 1748.48 2067.91 1704.92 2039.56 1630.63L2039.23 1629.78L2038.98 1628.9C2018.29 1555.06 2009.45 1496.77 2019.04 1441.95C2028.7 1386.75 2056.57 1337.68 2103.91 1281.16L2104.05 1280.99L2104.2 1280.82C2181.8 1192.26 2230.74 1140.4 2329.67 1130.11L2331.26 1129.94L2332.86 1130.03C2387.11 1133.06 2425.54 1163.34 2438.67 1202.78C2451.85 1242.38 2438.05 1287.44 2396.17 1314.75C2362.76 1336.54 2322.69 1368.04 2286.24 1402.65C2250.16 1436.92 2218.75 1473.19 2200.57 1505.21C2186.96 1545.09 2181.21 1577.23 2183.47 1612.95C2185.8 1649.66 2196.69 1691.48 2218.5 1750.57L2218.65 1750.96L2218.77 1751.35C2235.92 1804.42 2247.73 1848.19 2249.06 1893.75C2250.41 1939.7 2241.08 1986 2218.4 2044.71L2217.71 2046.49L2216.7 2048.1C2176.33 2112.68 2139.11 2157.46 2091.8 2183.89C2046.42 2209.23 1994.33 2216.29 1926.79 2212.17C1924.68 2214.78 1922.15 2217.9 1919.31 2221.38C1911.02 2231.56 1900.1 2244.82 1889.71 2256.99C1882.53 2265.39 1869.91 2266.38 1861.51 2259.21C1853.11 2252.03 1852.12 2239.41 1859.29 2231.01C1869.4 2219.18 1880.1 2206.19 1888.3 2196.12C1892.4 2191.09 1895.86 2186.81 1898.29 2183.79C1899.04 2182.86 1899.69 2182.05 1900.23 2181.37C1900.57 2180.95 1900.86 2180.58 1901.12 2180.27L1902.1 2179.04L1902.11 2179.03L1902.11 2179.03L1908.71 2170.76L1919.26 2171.56C1988.5 2176.82 2034.46 2170.09 2072.29 2148.96C2110.2 2127.79 2142.77 2090.64 2181.77 2028.52C2202.65 1974.02 2210.21 1933.61 2209.08 1894.92C2207.93 1855.52 2197.75 1816.44 2180.84 1764.04C2158.66 1703.92 2146.24 1657.91 2143.55 1615.48C2140.82 1572.45 2148.17 1534.46 2163.34 1490.48L2163.91 1488.81L2164.77 1487.27C2185.67 1449.74 2220.83 1409.62 2258.69 1373.65C2296.76 1337.5 2338.72 1304.46 2374.32 1281.25C2401.43 1263.56 2407.98 1237.25 2400.72 1215.41C2393.49 1193.71 2371.17 1172.75 2332.19 1170.07C2251.61 1178.92 2211.96 1218.55 2134.43 1307.01C2089.43 1360.77 2066.39 1403.42 2058.44 1448.85C2050.45 1494.52 2057.24 1545.56 2077.26 1617.23C2106.53 1694.03 2119.74 1741.09 2129.14 1834.5L2129.23 1835.33L2129.24 1836.17C2130.81 1931.81 2120.87 1991.87 2095.01 2031.26C2068.29 2071.97 2027.18 2086.69 1980.46 2099.31L1950.5 2107.4L1955.5 2076.77C1971.57 1978.45 1971.37 1903.54 1947.08 1828.5C1922.64 1752.98 1873.19 1675.35 1786.94 1572.88L1785.94 1571.69L1785.14 1570.36C1752.66 1516.77 1733.87 1476.71 1726.27 1440.61C1718.48 1403.6 1722.78 1372.37 1733.05 1337.37L1733.97 1334.22L1735.85 1331.54C1770.53 1281.96 1783.9 1245.91 1788.15 1211.73C1791.92 1181.31 1788.71 1151.62 1784.47 1112.44C1783.78 1106.08 1783.07 1099.47 1782.35 1092.57L1781.43 1083.67L1787.44 1077.05C1846.86 1011.62 1853.98 950.173 1852.11 826.415C1809.75 828.017 1777.2 834.216 1746.69 846.378C1711.33 860.471 1677.36 883.095 1633.28 918.578L1624.61 925.559L1614.11 921.869C1570.82 906.657 1539.31 899.696 1509.64 899.696C1480.12 899.697 1450.82 906.591 1411.97 921.648L1397.68 927.187L1388.62 914.828C1362 878.539 1340.95 854.834 1318.54 837.253C1300.22 822.888 1280.33 812.1 1254.53 802.16C1225.33 869.571 1210.64 916.443 1208.22 953.711C1205.73 992.226 1216.29 1021.51 1241.58 1054.28L1247.44 1061.87L1245.19 1071.19C1231.67 1127.15 1224.05 1167.3 1226.75 1203.64C1229.36 1238.6 1241.71 1271.52 1271.52 1312.02C1287.76 1328.72 1301.04 1344.46 1308.86 1363.43C1317.03 1383.25 1318.44 1404.47 1315.11 1430.79C1310.47 1475.27 1302.89 1508.2 1289.63 1537.32C1276.45 1566.27 1258.22 1590.17 1234.23 1617.18C1148.82 1730.72 1103.19 1816.56 1093.14 1900.95C1083.14 1984.89 1107.99 2070.93 1172.2 2185.74L1172.59 2186.43L1195.18 2235.66C1199.78 2245.7 1195.38 2257.57 1185.34 2262.18C1175.3 2266.78 1163.43 2262.38 1158.82 2252.34L1136.9 2204.56C1071.21 2086.95 1041.99 1992.16 1053.42 1896.22C1064.8 1800.69 1116.11 1707.57 1202.77 1592.47L1203.26 1591.82L1203.8 1591.2C1227.07 1565.06 1242.4 1544.52 1253.23 1520.74C1264.05 1496.97 1270.96 1468.67 1275.35 1426.43L1275.38 1426.2L1275.4 1425.98C1278.24 1403.64 1276.53 1389.97 1271.88 1378.68C1267.01 1366.86 1258.06 1355.48 1241.94 1338.98L1240.99 1338L1240.18 1336.91C1206.35 1291.29 1190.17 1251.03 1186.86 1206.61C1183.81 1165.65 1191.88 1122.51 1204.11 1070.94C1177.89 1034.47 1165.29 997.684 1168.31 951.122C1171.43 903.063 1191.16 845.804 1225.48 768.854L1232.91 752.185Z" fill="white"/>
<path fill-rule="evenodd" clip-rule="evenodd" d="M706 2250C706 2241.72 712.716 2235 721 2235H1869C1877.28 2235 1884 2241.72 1884 2250C1884 2258.28 1877.28 2265 1869 2265H721C712.716 2265 706 2258.28 706 2250Z" fill="white"/>
<circle cx="1390" cy="1390" r="1370" stroke="white" stroke-width="40"/>
</svg>
