<svg width="2700" height="2700" viewBox="0 0 2700 2700" fill="none" xmlns="http://www.w3.org/2000/svg">
<circle cx="1350" cy="1350" r="1350" fill="#D16D79"/>
<path fill-rule="evenodd" clip-rule="evenodd" d="M1062.34 390.93C987.277 409.229 944.18 433.436 862.244 498.134L834.421 520.104L830.006 484.928C828.452 472.551 825.089 466.765 822.786 464.178C820.745 461.886 818.376 460.769 815.11 460.392C807.178 459.476 797.005 463.462 792.295 466.36C792.128 466.539 791.295 467.342 789.657 469.272C787.393 471.937 784.536 475.601 780.986 480.297C778.753 483.252 776.253 486.607 773.538 490.252C767.926 497.785 761.392 506.556 754.382 515.585C733.784 542.117 706.512 574.33 675.716 596.813C659.524 612.447 649.889 624.416 644.372 635.509C639.06 646.19 637.042 657.125 638.279 671.754C638.766 677.518 641.226 686.209 645.887 697.389C650.414 708.247 656.465 720.168 663.068 732.01C676.266 755.681 691.006 777.863 698.375 788.671C699.166 789.831 699.942 790.973 700.705 792.096C707.574 802.199 713.384 810.746 719.788 817.676C726.677 825.13 732.502 828.697 738.19 829.809C744.868 831.116 750.002 829.579 753.294 826.662C756.424 823.889 761.01 817.073 760.871 801.421C755.95 764.277 755.15 735.686 759.074 708.924C763.046 681.83 771.692 657.796 784.061 629.844L822.204 640.352C818.711 669.071 817.713 689.015 819.155 706.272C820.528 722.706 824.181 737.463 830.918 755.65C849.742 786.685 860.477 814.647 862.815 846.624C865.149 878.55 858.962 912.779 847.133 955.746L846.795 956.973L736.064 1222.02C662.74 1437.31 623.49 1597.52 617.74 1745.01C612.002 1892.17 639.579 2028 702.073 2194.41C705.957 2204.75 700.722 2216.28 690.382 2220.16C680.041 2224.04 668.51 2218.81 664.627 2208.47C600.85 2038.65 571.769 1897.39 577.77 1743.45C583.754 1589.98 624.568 1425.22 698.419 1208.49L698.636 1207.85L808.902 943.908C820.166 902.765 824.726 874.224 822.921 849.54C821.242 826.564 813.922 805.445 798.549 779.452C799.126 785.089 799.832 791.016 800.672 797.278L800.821 798.385L800.845 799.501C801.375 823.787 794.345 843.73 779.822 856.599C765.392 869.387 746.832 872.259 730.51 869.065C713.198 865.678 700.273 855.494 690.412 844.824C681.831 835.539 674.255 824.366 667.695 814.693C666.89 813.505 666.1 812.34 665.325 811.204C657.694 800.011 642.184 776.693 628.131 751.489C621.109 738.894 614.284 725.534 608.968 712.782C603.786 700.353 599.433 687.107 598.421 675.121C596.657 654.25 599.543 635.822 608.557 617.697C617.256 600.206 631.095 584.182 649.006 567.003L650.023 566.028L651.166 565.205C677.509 546.243 702.302 517.44 722.786 491.056C729.577 482.308 735.607 474.211 741.08 466.864C743.883 463.101 746.539 459.535 749.076 456.178C752.697 451.388 756.124 446.964 759.165 443.382C761.75 440.337 765.574 436.03 769.905 433.198C778.45 427.611 798.554 418.214 819.698 420.656C831.116 421.974 843.089 426.83 852.66 437.579C855.656 440.943 858.258 444.708 860.485 448.853C931.462 394.772 978.14 370.256 1053.12 352.005L1053.36 351.946L1053.6 351.893C1098.92 342.05 1147.12 344.173 1185.44 349.444C1223.22 354.64 1254.12 363.302 1264.84 368.328C1275.17 373.17 1289.12 383.461 1299.1 391.187C1300.46 392.243 1301.79 393.282 1303.07 394.291C1312.6 385.678 1323.11 380.175 1333.96 377.269C1350.1 372.945 1365.46 374.766 1377.41 378.226C1382.8 379.785 1388.62 383.207 1393.12 386.005C1398.26 389.207 1404.36 393.345 1411.02 397.961C1415.46 401.048 1420.19 404.368 1425.17 407.874C1435.44 415.089 1446.82 423.088 1459.2 431.447C1496.22 456.443 1538.29 481.892 1573.92 492.229L1575 492.541L1576.03 492.972C1583.99 496.281 1591.62 501.224 1597.07 508.998C1602.63 516.922 1604.51 525.764 1604.49 534.242C1604.46 549.425 1598.14 567.661 1590.7 587.146C1577.25 627.825 1557.61 673.591 1538.12 709.619C1528.37 727.632 1518.32 743.857 1508.73 755.921C1503.97 761.921 1498.86 767.489 1493.49 771.776C1488.57 775.714 1481.02 780.531 1471.68 780.92C1451.41 781.765 1436.33 769.6 1426.09 757.107C1422.25 771.696 1417.17 786.725 1409.62 805.375C1398.26 839.389 1399.35 844.91 1400.65 848.289C1404.64 858.592 1399.51 870.172 1389.21 874.155C1378.91 878.137 1367.33 873.014 1363.35 862.711C1355.94 843.541 1361.37 823.482 1371.89 792.086L1372.08 791.492L1372.32 790.91C1387.49 753.572 1391.53 733.424 1397.06 695.547L1407.86 621.623L1435.44 691.053C1441.5 706.321 1448.21 720.171 1455.49 729.794C1461.43 737.655 1465.7 740.088 1468.25 740.743C1468.33 740.677 1468.42 740.605 1468.52 740.529C1470.63 738.841 1473.63 735.808 1477.41 731.045C1484.93 721.583 1493.71 707.641 1502.94 690.583C1521.32 656.602 1540.11 612.821 1552.86 574.174L1553 573.731L1553.17 573.294C1561.25 552.162 1564.48 540.796 1564.49 534.156C1564.49 532.877 1564.36 532.21 1564.28 531.929C1564.04 531.698 1563.29 531.089 1561.53 530.278C1519.58 517.811 1473.45 489.331 1436.82 464.599C1424.14 456.04 1412.14 447.609 1401.72 440.284C1396.84 436.854 1392.31 433.666 1388.21 430.822C1381.63 426.258 1376.23 422.607 1371.99 419.971C1368.76 417.962 1367.03 417.077 1366.41 416.761C1366.1 416.598 1366.07 416.586 1366.29 416.648C1359.24 414.609 1351.56 413.964 1344.31 415.907C1337.47 417.739 1329.47 422.257 1321.78 433.336L1309.22 451.45L1292.41 437.189L1292.41 437.188L1292.4 437.178L1292.34 437.129C1292.29 437.083 1292.2 437.012 1292.09 436.917C1291.86 436.726 1291.52 436.438 1291.08 436.065C1290.18 435.32 1288.88 434.237 1287.26 432.91C1284.02 430.249 1279.54 426.637 1274.6 422.813C1264.08 414.664 1253.53 407.205 1247.86 404.547C1242.58 402.073 1216.39 394.078 1179.99 389.071C1144.21 384.149 1101.26 382.519 1062.34 390.93ZM1564.38 532.03C1564.37 532.029 1564.37 532.019 1564.35 531.998C1564.37 532.019 1564.38 532.03 1564.38 532.03ZM1564.26 531.862C1564.23 531.801 1564.21 531.764 1564.21 531.76C1564.22 531.757 1564.23 531.787 1564.26 531.862ZM1466.98 741.598C1466.98 741.596 1467.02 741.574 1467.1 741.541C1467.02 741.584 1466.98 741.601 1466.98 741.598Z" fill="white"/>
<path fill-rule="evenodd" clip-rule="evenodd" d="M1192.91 712.185L1210.19 718.067C1247.41 730.74 1276.37 744.724 1303.22 765.778C1326.87 784.328 1348.12 807.769 1371.81 839.014C1406.96 826.428 1437.58 819.697 1469.64 819.696C1502.97 819.696 1536.49 826.971 1576.85 840.516C1618.19 807.836 1653.61 784.474 1691.88 769.221C1733.06 752.808 1776.18 746.31 1831.63 746L1851.33 745.89L1851.74 765.586C1854.49 898.741 1851.44 977.761 1783.06 1057.15C1783.44 1060.66 1783.81 1064.13 1784.19 1067.58C1788.43 1106.39 1792.23 1141.25 1787.84 1176.65C1782.68 1218.21 1766.55 1259.61 1730.54 1311.71C1722.12 1341.38 1719.63 1364.89 1725.41 1392.37C1731.53 1421.45 1747.23 1456.48 1778.55 1508.32C1865.33 1611.57 1918.42 1693.61 1945.14 1776.19C1969.29 1850.81 1971.41 1924.28 1959.67 2011.79C1988.68 2001.82 2007.95 1990.06 2021.57 1969.31C2040.19 1940.95 2050.74 1892.03 2049.26 1797.67C2040.23 1708.48 2027.91 1664.92 1999.56 1590.63L1999.23 1589.78L1998.98 1588.9C1978.29 1515.06 1969.45 1456.77 1979.04 1401.95C1988.7 1346.75 2016.57 1297.68 2063.91 1241.16L2064.05 1240.99L2064.2 1240.82C2141.8 1152.26 2190.74 1100.4 2289.67 1090.11L2291.26 1089.94L2292.86 1090.03C2347.11 1093.06 2385.54 1123.34 2398.67 1162.78C2411.85 1202.38 2398.05 1247.44 2356.17 1274.75C2322.76 1296.54 2282.69 1328.04 2246.24 1362.65C2210.16 1396.92 2178.75 1433.19 2160.57 1465.21C2146.96 1505.09 2141.21 1537.23 2143.47 1572.95C2145.8 1609.66 2156.69 1651.48 2178.5 1710.57L2178.65 1710.96L2178.77 1711.35C2195.92 1764.42 2207.73 1808.19 2209.06 1853.75C2210.41 1899.7 2201.08 1946 2178.4 2004.71L2177.71 2006.49L2176.7 2008.1C2136.33 2072.68 2099.11 2117.46 2051.8 2143.89C2006.42 2169.23 1954.33 2176.29 1886.79 2172.17C1884.68 2174.78 1882.15 2177.9 1879.31 2181.38C1871.02 2191.56 1860.1 2204.82 1849.71 2216.99C1842.53 2225.39 1829.91 2226.38 1821.51 2219.21C1813.11 2212.03 1812.12 2199.41 1819.29 2191.01C1829.4 2179.18 1840.1 2166.19 1848.3 2156.12C1852.4 2151.09 1855.86 2146.81 1858.29 2143.79C1859.04 2142.86 1859.69 2142.05 1860.23 2141.37C1860.57 2140.95 1860.86 2140.58 1861.12 2140.27L1862.1 2139.04L1862.11 2139.03L1862.11 2139.03L1868.71 2130.76L1879.26 2131.56C1948.5 2136.82 1994.46 2130.09 2032.29 2108.96C2070.2 2087.79 2102.77 2050.64 2141.77 1988.52C2162.65 1934.02 2170.21 1893.61 2169.08 1854.92C2167.93 1815.52 2157.75 1776.44 2140.84 1724.04C2118.66 1663.92 2106.24 1617.91 2103.55 1575.48C2100.82 1532.45 2108.17 1494.46 2123.34 1450.48L2123.91 1448.81L2124.77 1447.27C2145.67 1409.74 2180.83 1369.62 2218.69 1333.65C2256.76 1297.5 2298.72 1264.46 2334.32 1241.25C2361.43 1223.56 2367.98 1197.25 2360.72 1175.41C2353.49 1153.71 2331.17 1132.75 2292.19 1130.07C2211.61 1138.92 2171.96 1178.55 2094.43 1267.01C2049.43 1320.77 2026.39 1363.42 2018.44 1408.85C2010.45 1454.52 2017.24 1505.56 2037.26 1577.23C2066.53 1654.03 2079.74 1701.09 2089.14 1794.5L2089.23 1795.33L2089.24 1796.17C2090.81 1891.81 2080.87 1951.87 2055.01 1991.26C2028.29 2031.97 1987.18 2046.69 1940.46 2059.31L1910.5 2067.4L1915.5 2036.77C1931.57 1938.45 1931.37 1863.54 1907.08 1788.5C1882.64 1712.98 1833.19 1635.35 1746.94 1532.88L1745.94 1531.69L1745.14 1530.36C1712.66 1476.77 1693.87 1436.71 1686.27 1400.61C1678.48 1363.6 1682.78 1332.37 1693.05 1297.37L1693.97 1294.22L1695.85 1291.54C1730.53 1241.96 1743.9 1205.91 1748.15 1171.73C1751.92 1141.31 1748.71 1111.62 1744.47 1072.44C1743.78 1066.08 1743.07 1059.47 1742.35 1052.57L1741.43 1043.67L1747.44 1037.05C1806.86 971.621 1813.98 910.173 1812.11 786.415C1769.75 788.017 1737.2 794.216 1706.69 806.378C1671.33 820.471 1637.36 843.095 1593.28 878.578L1584.61 885.559L1574.11 881.869C1530.82 866.657 1499.31 859.696 1469.64 859.696C1440.12 859.697 1410.82 866.591 1371.97 881.648L1357.68 887.187L1348.62 874.828C1322 838.539 1300.95 814.834 1278.54 797.253C1260.22 782.888 1240.33 772.1 1214.53 762.16C1185.33 829.571 1170.64 876.443 1168.22 913.711C1165.73 952.226 1176.29 981.508 1201.58 1014.28L1207.44 1021.87L1205.19 1031.19C1191.67 1087.15 1184.05 1127.3 1186.75 1163.64C1189.36 1198.6 1201.71 1231.52 1231.52 1272.02C1247.76 1288.72 1261.04 1304.46 1268.86 1323.43C1277.03 1343.25 1278.44 1364.47 1275.11 1390.79C1270.47 1435.27 1262.89 1468.2 1249.63 1497.32C1236.45 1526.27 1218.22 1550.17 1194.23 1577.18C1108.82 1690.72 1063.19 1776.56 1053.14 1860.95C1043.14 1944.89 1067.99 2030.93 1132.2 2145.74L1132.59 2146.43L1155.18 2195.66C1159.78 2205.7 1155.38 2217.57 1145.34 2222.18C1135.3 2226.78 1123.43 2222.38 1118.82 2212.34L1096.9 2164.56C1031.21 2046.95 1001.99 1952.16 1013.42 1856.22C1024.8 1760.69 1076.11 1667.57 1162.77 1552.47L1163.26 1551.82L1163.8 1551.2C1187.07 1525.06 1202.4 1504.52 1213.23 1480.74C1224.05 1456.97 1230.96 1428.67 1235.35 1386.43L1235.38 1386.2L1235.4 1385.98C1238.24 1363.64 1236.53 1349.97 1231.88 1338.68C1227.01 1326.86 1218.06 1315.48 1201.94 1298.98L1200.99 1298L1200.18 1296.91C1166.35 1251.29 1150.17 1211.03 1146.86 1166.61C1143.81 1125.65 1151.88 1082.51 1164.11 1030.94C1137.89 994.472 1125.29 957.684 1128.31 911.122C1131.43 863.063 1151.16 805.804 1185.48 728.854L1192.91 712.185Z" fill="white"/>
<path fill-rule="evenodd" clip-rule="evenodd" d="M666 2210C666 2201.72 672.716 2195 681 2195H1829C1837.28 2195 1844 2201.72 1844 2210C1844 2218.28 1837.28 2225 1829 2225H681C672.716 2225 666 2218.28 666 2210Z" fill="white"/>
</svg>
